<?xml version="1.0" standalone="no"?>
<!DOCTYPE svg PUBLIC "-//W3C//DTD SVG 20010904//EN"
 "http://www.w3.org/TR/2001/REC-SVG-20010904/DTD/svg10.dtd">
<svg version="1.0" xmlns="http://www.w3.org/2000/svg"
 width="595.000000pt" height="595.000000pt" viewBox="0 0 595.000000 595.000000"
 preserveAspectRatio="xMidYMid meet">
<metadata>
Created by potrace 1.11, written by Peter Selinger 2001-2013
</metadata>
<g transform="translate(0.000000,595.000000) scale(0.100000,-0.100000)"
fill="#000000" stroke="none">
<path d="M3999 5226 c-123 -164 -333 -279 -611 -336 -159 -32 -523 -78 -668
-84 -441 -19 -913 -154 -1268 -364 -565 -335 -977 -880 -1221 -1619 -115 -348
-203 -814 -212 -1128 l-3 -80 145 -71 144 -70 7 175 c47 1199 469 2066 1265
2601 410 275 965 460 1378 460 328 0 782 -126 1155 -321 134 -70 329 -198 450
-294 129 -104 345 -326 446 -460 394 -525 607 -1191 631 -1973 3 -111 7 -202
8 -202 1 0 68 32 149 70 l147 70 -6 83 c-53 682 -251 1338 -552 1835 -207 341
-500 651 -810 855 -178 117 -402 225 -600 288 -40 13 -73 25 -73 28 1 4 15 15
32 26 54 34 95 97 112 174 17 73 23 386 9 394 -5 2 -29 -23 -54 -57z"/>
<path d="M1364 3610 c-176 -11 -209 -50 -209 -245 0 -66 7 -151 14 -190 39
-200 149 -450 243 -550 111 -119 217 -154 498 -162 372 -11 585 34 700 149 25
25 92 123 152 224 132 222 163 254 248 254 54 0 109 -50 174 -161 171 -293
208 -338 320 -390 119 -56 181 -64 496 -64 245 0 294 3 349 18 78 22 152 59
204 101 116 93 243 389 282 657 33 229 8 315 -102 355 -47 16 -419 19 -598 4
-191 -17 -685 -79 -740 -94 -57 -15 -109 -40 -210 -101 -88 -53 -124 -65 -192
-65 -64 0 -99 14 -218 85 -111 66 -190 90 -370 110 -77 9 -216 25 -310 35
-172 20 -488 41 -580 38 -27 -1 -95 -4 -151 -8z m703 -131 c181 -15 398 -46
463 -66 75 -23 143 -91 164 -164 46 -155 -3 -392 -105 -504 -89 -97 -223 -146
-455 -166 -211 -18 -376 7 -534 83 -181 87 -278 240 -297 469 -7 77 10 175 37
229 27 53 92 108 137 115 21 4 45 8 53 10 38 8 422 4 537 -6z m2468 -8 c142
-59 190 -272 115 -513 -75 -245 -320 -380 -685 -379 -197 0 -351 28 -459 83
-57 29 -134 106 -162 160 -53 105 -82 270 -64 369 19 103 67 173 147 213 40
20 222 51 408 70 177 18 655 16 700 -3z"/>
<path d="M2956 2795 c-16 -9 -36 -26 -45 -38 -31 -45 -138 -151 -201 -199 -84
-64 -202 -121 -315 -153 -169 -47 -190 -120 -68 -236 112 -108 249 -187 408
-235 83 -26 104 -28 260 -28 188 -1 244 9 387 69 132 56 317 194 354 266 38
75 -2 129 -121 160 -100 26 -228 85 -310 144 -34 24 -107 92 -162 150 -107
114 -134 128 -187 100z"/>
</g>
</svg>
